<?xml version="1.0" standalone="no"?>
<!DOCTYPE svg PUBLIC "-//W3C//DTD SVG 20010904//EN"
 "http://www.w3.org/TR/2001/REC-SVG-20010904/DTD/svg10.dtd">
<svg version="1.0" xmlns="http://www.w3.org/2000/svg"
 width="1360.000000pt" height="1360.000000pt" viewBox="0 0 1360.000000 1360.000000"
 preserveAspectRatio="xMidYMid meet">
<metadata>
Created by potrace 1.14, written by Peter Selinger 2001-2017
</metadata>
<g transform="translate(0.000000,1360.000000) scale(0.100000,-0.100000)"
fill="#000000" stroke="none">
<path d="M4991 9313 c-2 -27 -4 -64 -6 -83 -3 -33 -12 -157 -20 -280 -3 -53
-2 -55 44 -100 25 -25 75 -78 111 -119 36 -41 80 -91 99 -110 18 -20 52 -58
75 -84 l41 -48 0 -169 1 -169 -76 38 c-68 35 -111 54 -118 51 -1 0 -16 6 -32
15 -16 8 -33 14 -37 13 -4 0 -20 4 -36 10 -15 7 -39 14 -52 16 -14 3 -33 7
-43 10 -17 5 -73 15 -127 22 -41 5 -291 5 -340 0 -61 -7 -138 -18 -155 -22
-141 -32 -336 -102 -364 -130 -8 -8 -19 -14 -24 -14 -9 0 -137 -89 -177 -122
-55 -46 -205 -202 -205 -213 0 -2 -20 -32 -44 -67 -60 -87 -156 -279 -156
-311 0 -7 -5 -18 -12 -25 -7 -7 -9 -12 -5 -12 4 0 1 -13 -8 -30 -9 -16 -13
-30 -11 -30 3 0 1 -12 -5 -27 -11 -27 -14 -40 -24 -85 -2 -13 -8 -36 -12 -53
-4 -16 -7 -32 -8 -35 -5 -23 -16 -92 -20 -125 -2 -22 -7 -62 -11 -90 -4 -27
-8 -133 -8 -235 0 -165 4 -232 19 -363 8 -70 47 -242 71 -317 31 -93 103 -259
121 -281 7 -8 13 -19 13 -23 0 -11 101 -166 130 -201 54 -63 169 -172 228
-215 136 -98 318 -190 406 -204 21 -4 42 -9 47 -12 5 -3 28 -7 51 -10 24 -3
52 -8 63 -11 11 -4 29 -7 40 -8 40 -4 230 -17 240 -17 79 4 206 13 225 17 14
2 39 7 55 9 28 5 49 10 95 21 11 3 28 7 38 9 37 9 189 71 232 94 25 14 54 30
65 36 122 67 309 246 398 379 89 134 199 385 221 503 2 16 7 40 10 54 54 249
57 312 59 1600 l2 994 -25 30 c-14 17 -34 40 -45 51 -11 11 -74 79 -140 150
-135 147 -174 189 -272 294 l-70 74 -254 4 -255 4 -3 -48z m-242 -1497 c95
-22 178 -71 255 -150 59 -60 98 -106 90 -106 -3 0 6 -15 19 -32 41 -54 115
-227 132 -308 2 -8 4 -16 5 -17 3 -3 2 -2 15 -58 5 -22 9 -42 10 -45 4 -17 26
-152 30 -185 7 -61 6 -343 -1 -410 -3 -33 -7 -76 -9 -95 -1 -19 -5 -51 -9 -70
-3 -19 -8 -46 -10 -60 -15 -80 -63 -238 -82 -267 -8 -13 -12 -23 -9 -23 6 0
-39 -86 -72 -136 -29 -46 -45 -66 -89 -109 -144 -142 -238 -181 -434 -178
-140 2 -247 49 -371 164 -131 123 -252 396 -283 644 -25 192 -23 356 8 580 2
17 7 52 10 78 10 82 42 205 73 287 3 8 7 20 8 25 4 16 65 137 83 166 42 65 60
87 106 137 80 85 200 154 291 169 17 3 32 7 34 9 5 5 171 -3 200 -10z"/>
<path d="M6669 9175 c-71 -29 -139 -92 -174 -161 -26 -52 -29 -70 -30 -150 0
-80 3 -97 28 -146 59 -117 156 -179 281 -183 39 -1 77 2 84 7 6 6 12 8 12 4 0
-3 17 1 38 9 216 90 279 355 127 533 -87 101 -241 138 -366 87z"/>
<path d="M8928 8455 c-2 -1 -43 -5 -93 -9 -49 -3 -101 -8 -115 -11 -14 -3 -47
-9 -75 -15 -27 -5 -59 -12 -70 -14 -11 -3 -36 -9 -55 -14 -67 -17 -215 -86
-300 -140 -121 -77 -252 -193 -319 -282 -14 -19 -28 -37 -32 -40 -8 -7 -119
-189 -119 -195 0 -3 -11 -29 -24 -57 -35 -77 -72 -182 -95 -268 -20 -72 -25
-96 -37 -169 -3 -18 -7 -42 -9 -52 -25 -129 -25 -575 0 -693 2 -11 7 -39 9
-61 3 -22 15 -76 26 -120 11 -44 22 -89 25 -100 15 -65 117 -288 177 -385 43
-69 127 -176 175 -220 254 -239 474 -339 828 -377 110 -12 345 -5 435 12 126
24 238 58 340 103 l46 19 -1 -123 0 -124 -67 -77 c-36 -43 -75 -87 -85 -98
-10 -11 -47 -54 -83 -95 -36 -41 -79 -91 -97 -109 -29 -33 -31 -39 -28 -96 4
-70 15 -224 20 -275 2 -19 5 -56 6 -82 l3 -48 257 0 257 0 53 62 c30 33 65 73
79 89 14 15 57 62 95 105 39 43 79 88 90 100 21 23 44 49 155 173 l64 73 2
806 c1 444 5 821 8 837 12 63 17 114 28 310 1 21 -13 282 -17 310 -13 104 -22
156 -30 195 -7 30 -13 57 -19 85 -9 42 -89 244 -129 325 -67 138 -163 275
-259 371 -58 58 -218 178 -227 170 -2 -1 -7 1 -10 6 -20 30 -294 145 -376 159
-16 3 -46 9 -65 14 -61 15 -330 35 -342 25z m137 -501 c61 -9 68 -11 115 -30
63 -25 126 -69 190 -133 71 -71 109 -128 159 -232 64 -137 103 -274 130 -461
9 -63 8 -465 -2 -503 -2 -11 -7 -41 -11 -66 -39 -271 -141 -497 -282 -630
-121 -112 -224 -156 -379 -160 -181 -4 -310 53 -446 199 -84 90 -160 237 -208
398 -34 117 -41 151 -56 293 -5 44 -5 284 0 326 2 17 6 59 10 95 7 77 13 111
26 165 6 22 10 47 10 55 1 8 3 22 6 30 3 8 8 23 9 32 8 39 63 187 89 238 117
232 303 373 510 387 39 3 72 7 74 9 2 2 7 1 11 -1 4 -3 25 -7 45 -11z"/>
<path d="M6737 8443 c-4 -3 -66 -5 -139 -5 -73 1 -140 -1 -148 -3 -13 -4 -15
-192 -14 -1613 0 -885 4 -1614 8 -1620 4 -7 12 -9 18 -6 6 4 45 6 87 5 42 -2
83 -3 91 -3 8 0 47 0 85 1 39 1 148 1 243 1 95 -1 176 1 180 4 5 3 9 3133 3
3219 -1 15 -11 17 -73 16 -40 0 -77 0 -83 1 -5 1 -14 1 -20 0 -25 -5 -213 -2
-222 3 -6 4 -13 4 -16 0z"/>
<path d="M12158 8405 c-3 -3 -43 -7 -89 -10 -46 -3 -95 -7 -109 -10 -13 -3
-42 -7 -65 -10 -326 -45 -659 -261 -847 -547 -57 -87 -126 -222 -153 -298 -52
-150 -87 -280 -101 -385 -3 -27 -8 -58 -10 -68 -26 -140 -20 -532 11 -697 3
-14 7 -41 10 -60 3 -19 10 -51 16 -70 5 -19 13 -48 16 -65 8 -49 72 -213 120
-310 45 -91 141 -242 178 -282 85 -91 132 -134 211 -194 49 -38 96 -69 102
-69 7 0 12 -4 12 -10 0 -5 4 -10 10 -10 5 0 31 -13 57 -28 26 -16 51 -29 55
-31 4 -1 29 -11 55 -22 54 -23 223 -65 298 -73 28 -4 70 -9 95 -12 147 -21
419 -1 565 40 270 77 494 224 668 438 126 157 245 425 291 658 35 174 41 245
40 480 0 210 -3 246 -35 420 -6 36 -13 72 -14 80 -5 42 -29 130 -35 130 -4 0
-7 6 -7 13 -3 69 -171 407 -247 494 -6 7 -22 26 -36 44 -98 122 -257 245 -420
322 -112 53 -130 60 -183 71 -16 3 -34 9 -40 15 -7 5 -30 12 -52 15 -22 4 -47
8 -55 11 -38 11 -83 16 -184 20 -59 3 -111 7 -116 10 -4 2 -9 2 -12 0z m127
-515 c22 -6 49 -13 60 -15 71 -17 187 -103 260 -194 25 -31 49 -61 54 -67 39
-47 125 -258 147 -359 1 -5 7 -28 12 -50 10 -36 15 -61 27 -135 26 -160 20
-495 -12 -655 -3 -16 -7 -41 -9 -55 -3 -27 -12 -65 -14 -65 -1 0 -3 -11 -6
-25 -4 -24 -23 -77 -66 -185 -60 -150 -187 -299 -319 -373 -131 -73 -348 -76
-496 -6 -59 28 -66 33 -140 99 -48 42 -133 147 -133 163 0 6 -3 12 -7 14 -14
5 -71 131 -98 214 -79 239 -100 515 -60 807 3 20 7 52 9 70 21 163 59 290 135
447 14 30 29 57 34 58 4 2 7 9 7 15 0 35 216 247 234 230 3 -4 6 -2 6 4 0 10
120 58 165 66 46 8 173 6 210 -3z"/>
<path d="M1347 8333 c-1 0 -33 -4 -72 -7 -71 -6 -110 -10 -177 -22 -21 -3 -41
-6 -45 -6 -5 0 -15 -4 -24 -9 -9 -4 -27 -10 -40 -12 -50 -10 -171 -57 -236
-93 -102 -56 -106 -58 -119 -69 -6 -5 -24 -19 -40 -30 -94 -68 -217 -189 -269
-266 -16 -24 -32 -46 -35 -49 -18 -16 -140 -246 -140 -264 0 -2 -8 -21 -17
-42 -9 -22 -18 -43 -20 -49 -1 -5 -14 -48 -28 -94 -14 -46 -27 -96 -30 -110
-3 -14 -7 -37 -10 -51 -3 -14 -8 -41 -11 -60 -3 -19 -7 -46 -10 -60 -13 -72
-18 -176 -18 -365 0 -213 6 -302 29 -415 3 -14 8 -41 11 -60 27 -153 119 -395
207 -540 113 -189 349 -399 562 -501 39 -18 75 -35 80 -36 6 -1 41 -11 79 -22
37 -11 85 -23 105 -26 20 -3 48 -8 61 -10 129 -27 437 -27 573 0 15 3 37 7 50
9 94 18 277 90 380 152 364 219 580 586 662 1129 23 150 23 504 0 645 -2 14
-7 44 -10 68 -6 52 -43 209 -55 237 -5 11 -23 61 -41 110 -73 206 -185 389
-324 531 -101 103 -177 159 -315 232 -98 52 -285 120 -354 128 -22 3 -43 7
-47 10 -15 9 -304 25 -312 17z m244 -532 c59 -22 146 -79 189 -122 44 -44 110
-126 110 -137 0 -6 4 -12 9 -14 23 -9 129 -265 145 -350 2 -13 8 -41 14 -63 6
-22 13 -60 17 -85 3 -25 9 -63 12 -85 13 -89 6 -475 -11 -565 -3 -14 -7 -46
-11 -73 -3 -26 -10 -58 -15 -72 -5 -14 -8 -25 -5 -25 2 0 -8 -33 -21 -72 -14
-40 -27 -77 -28 -83 -27 -94 -113 -238 -189 -315 -72 -74 -164 -133 -243 -156
-65 -19 -219 -25 -274 -12 -19 5 -44 11 -55 13 -63 15 -152 73 -231 150 -46
46 -84 87 -84 93 0 6 -6 17 -13 24 -64 64 -163 365 -184 557 -8 70 -12 493 -5
505 3 5 6 27 8 50 13 168 127 502 196 576 10 10 18 22 18 25 0 18 118 133 182
176 92 63 182 87 308 84 78 -2 119 -8 161 -24z"/>
</g>
</svg>
